solid OpenSCAD_Model
  facet normal -1 0 0
    outer loop
      vertex -3 -3 -0.599999
      vertex -3 3 0.599999
      vertex -3 3 -0.599999
    endloop
  endfacet
  facet normal -1 -0 0
    outer loop
      vertex -3 3 0.599999
      vertex -3 -3 -0.599999
      vertex -3 -3 0.599999
    endloop
  endfacet
  facet normal 0 0 1
    outer loop
      vertex 3 3 0.599999
      vertex 1.5 1.5 0.599999
      vertex 3 -3 0.599999
    endloop
  endfacet
  facet normal 0 0 1
    outer loop
      vertex 3 3 0.599999
      vertex -1.5 1.5 0.599999
      vertex 1.5 1.5 0.599999
    endloop
  endfacet
  facet normal 0 0 1
    outer loop
      vertex -1.5 1.5 0.599999
      vertex -3 3 0.599999
      vertex -1.5 -1.5 0.599999
    endloop
  endfacet
  facet normal -0 0 1
    outer loop
      vertex -3 3 0.599999
      vertex -1.5 1.5 0.599999
      vertex 3 3 0.599999
    endloop
  endfacet
  facet normal -0 0 1
    outer loop
      vertex 1.5 -1.5 0.599999
      vertex 3 -3 0.599999
      vertex 1.5 1.5 0.599999
    endloop
  endfacet
  facet normal -0 0 1
    outer loop
      vertex -1.5 -1.5 0.599999
      vertex 3 -3 0.599999
      vertex 1.5 -1.5 0.599999
    endloop
  endfacet
  facet normal 0 0 1
    outer loop
      vertex -1.5 -1.5 0.599999
      vertex -3 -3 0.599999
      vertex 3 -3 0.599999
    endloop
  endfacet
  facet normal 0 0 1
    outer loop
      vertex -3 -3 0.599999
      vertex -1.5 -1.5 0.599999
      vertex -3 3 0.599999
    endloop
  endfacet
  facet normal 1 -0 0
    outer loop
      vertex 3 -3 0.599999
      vertex 3 3 -0.599999
      vertex 3 3 0.599999
    endloop
  endfacet
  facet normal 1 0 0
    outer loop
      vertex 3 3 -0.599999
      vertex 3 -3 0.599999
      vertex 3 -3 -0.599999
    endloop
  endfacet
  facet normal 0 1 -0
    outer loop
      vertex 3 3 -0.599999
      vertex -3 3 0.599999
      vertex 3 3 0.599999
    endloop
  endfacet
  facet normal 0 1 0
    outer loop
      vertex -3 3 0.599999
      vertex 3 3 -0.599999
      vertex -3 3 -0.599999
    endloop
  endfacet
  facet normal 0 0 -1
    outer loop
      vertex 3 -3 -0.599999
      vertex 1.5 -1.5 -0.599999
      vertex 3 3 -0.599999
    endloop
  endfacet
  facet normal 0 0 -1
    outer loop
      vertex 3 -3 -0.599999
      vertex -1.5 -1.5 -0.599999
      vertex 1.5 -1.5 -0.599999
    endloop
  endfacet
  facet normal -0 0 -1
    outer loop
      vertex -1.5 -1.5 -0.599999
      vertex -3 -3 -0.599999
      vertex -1.5 1.5 -0.599999
    endloop
  endfacet
  facet normal 0 0 -1
    outer loop
      vertex -3 -3 -0.599999
      vertex -1.5 -1.5 -0.599999
      vertex 3 -3 -0.599999
    endloop
  endfacet
  facet normal 0 0 -1
    outer loop
      vertex 1.5 1.5 -0.599999
      vertex 3 3 -0.599999
      vertex 1.5 -1.5 -0.599999
    endloop
  endfacet
  facet normal 0 0 -1
    outer loop
      vertex -1.5 1.5 -0.599999
      vertex 3 3 -0.599999
      vertex 1.5 1.5 -0.599999
    endloop
  endfacet
  facet normal 0 0 -1
    outer loop
      vertex -1.5 1.5 -0.599999
      vertex -3 3 -0.599999
      vertex 3 3 -0.599999
    endloop
  endfacet
  facet normal 0 0 -1
    outer loop
      vertex -3 3 -0.599999
      vertex -1.5 1.5 -0.599999
      vertex -3 -3 -0.599999
    endloop
  endfacet
  facet normal 0 -1 0
    outer loop
      vertex -3 -3 -0.599999
      vertex 3 -3 0.599999
      vertex -3 -3 0.599999
    endloop
  endfacet
  facet normal 0 -1 -0
    outer loop
      vertex 3 -3 0.599999
      vertex -3 -3 -0.599999
      vertex 3 -3 -0.599999
    endloop
  endfacet
  facet normal 1 -0 0
    outer loop
      vertex -1.5 -1.5 0.599999
      vertex -1.5 1.5 -0.599999
      vertex -1.5 1.5 0.599999
    endloop
  endfacet
  facet normal 1 0 0
    outer loop
      vertex -1.5 1.5 -0.599999
      vertex -1.5 -1.5 0.599999
      vertex -1.5 -1.5 -0.599999
    endloop
  endfacet
  facet normal -1 0 0
    outer loop
      vertex 1.5 -1.5 -0.599999
      vertex 1.5 1.5 0.599999
      vertex 1.5 1.5 -0.599999
    endloop
  endfacet
  facet normal -1 -0 0
    outer loop
      vertex 1.5 1.5 0.599999
      vertex 1.5 -1.5 -0.599999
      vertex 1.5 -1.5 0.599999
    endloop
  endfacet
  facet normal 0 1 -0
    outer loop
      vertex 1.5 -1.5 -0.599999
      vertex -1.5 -1.5 0.599999
      vertex 1.5 -1.5 0.599999
    endloop
  endfacet
  facet normal 0 1 0
    outer loop
      vertex -1.5 -1.5 0.599999
      vertex 1.5 -1.5 -0.599999
      vertex -1.5 -1.5 -0.599999
    endloop
  endfacet
  facet normal 0 -1 0
    outer loop
      vertex -1.5 1.5 -0.599999
      vertex 1.5 1.5 0.599999
      vertex -1.5 1.5 0.599999
    endloop
  endfacet
  facet normal 0 -1 -0
    outer loop
      vertex 1.5 1.5 0.599999
      vertex -1.5 1.5 -0.599999
      vertex 1.5 1.5 -0.599999
    endloop
  endfacet
endsolid OpenSCAD_Model
