solid OpenSCAD_Model
  facet normal 0 0 -1
    outer loop
      vertex 7.2 8 0
      vertex 5.79999 8 0
      vertex 25 30 0
    endloop
  endfacet
  facet normal 0 0 -1
    outer loop
      vertex 7.2 8 0
      vertex 25 30 0
      vertex 14 6 0
    endloop
  endfacet
  facet normal 0 0 -1
    outer loop
      vertex -14 6 0
      vertex -21.5 0 0
      vertex -25 0 0
    endloop
  endfacet
  facet normal 0 0 -1
    outer loop
      vertex 7.2 8 0
      vertex 14 6 0
      vertex 7.2 6 0
    endloop
  endfacet
  facet normal 0 0 -1
    outer loop
      vertex 14 6 0
      vertex 25 0 0
      vertex 21.5 0 0
    endloop
  endfacet
  facet normal 0 0 -1
    outer loop
      vertex 14 6 0
      vertex 25 30 0
      vertex 25 0 0
    endloop
  endfacet
  facet normal 0 0 -1
    outer loop
      vertex 5.79999 8 0
      vertex -25 30 0
      vertex 25 30 0
    endloop
  endfacet
  facet normal 0 0 -1
    outer loop
      vertex -25 0 0
      vertex -25 30 0
      vertex -14 6 0
    endloop
  endfacet
  facet normal 0 0 -1
    outer loop
      vertex -25 30 0
      vertex -5.79999 8 0
      vertex -7.2 8 0
    endloop
  endfacet
  facet normal 0 0 -1
    outer loop
      vertex -14 6 0
      vertex -7.2 8 0
      vertex -7.2 6 0
    endloop
  endfacet
  facet normal 0 0 -1
    outer loop
      vertex -25 30 0
      vertex 5.79999 8 0
      vertex -5.79999 8 0
    endloop
  endfacet
  facet normal 0 0 -1
    outer loop
      vertex -25 30 0
      vertex -7.2 8 0
      vertex -14 6 0
    endloop
  endfacet
  facet normal 0 0 -1
    outer loop
      vertex -5.79999 8 0
      vertex 5.79999 8 0
      vertex 5.79999 6 0
    endloop
  endfacet
  facet normal 0 0 -1
    outer loop
      vertex -5.79999 6 0
      vertex -5.79999 8 0
      vertex 5.79999 6 0
    endloop
  endfacet
  facet normal 0 0 1
    outer loop
      vertex 25 30 2
      vertex 5.79999 8 2
      vertex 7.2 8 2
    endloop
  endfacet
  facet normal 0 -0 1
    outer loop
      vertex 14 6 2
      vertex 25 30 2
      vertex 7.2 8 2
    endloop
  endfacet
  facet normal 0 0 1
    outer loop
      vertex -25 0 2
      vertex -21.5 0 2
      vertex -14 6 2
    endloop
  endfacet
  facet normal 0 0 1
    outer loop
      vertex 7.2 6 2
      vertex 14 6 2
      vertex 7.2 8 2
    endloop
  endfacet
  facet normal 0 -0 1
    outer loop
      vertex 21.5 0 2
      vertex 25 0 2
      vertex 14 6 2
    endloop
  endfacet
  facet normal 0 -0 1
    outer loop
      vertex 25 0 2
      vertex 25 30 2
      vertex 14 6 2
    endloop
  endfacet
  facet normal 0 0 1
    outer loop
      vertex 25 30 2
      vertex -25 30 2
      vertex 5.79999 8 2
    endloop
  endfacet
  facet normal 0 0 1
    outer loop
      vertex -14 6 2
      vertex -25 30 2
      vertex -25 0 2
    endloop
  endfacet
  facet normal 0 -0 1
    outer loop
      vertex -7.2 8 2
      vertex -5.79999 8 2
      vertex -25 30 2
    endloop
  endfacet
  facet normal 0 -0 1
    outer loop
      vertex -7.2 6 2
      vertex -7.2 8 2
      vertex -14 6 2
    endloop
  endfacet
  facet normal 0 -0 1
    outer loop
      vertex -5.79999 8 2
      vertex 5.79999 8 2
      vertex -25 30 2
    endloop
  endfacet
  facet normal 0 -0 1
    outer loop
      vertex -14 6 2
      vertex -7.2 8 2
      vertex -25 30 2
    endloop
  endfacet
  facet normal 0 -0 1
    outer loop
      vertex 5.79999 6 2
      vertex 5.79999 8 2
      vertex -5.79999 8 2
    endloop
  endfacet
  facet normal 0 0 1
    outer loop
      vertex 5.79999 6 2
      vertex -5.79999 8 2
      vertex -5.79999 6 2
    endloop
  endfacet
  facet normal 0 -1 0
    outer loop
      vertex 7.2 8 0
      vertex 5.79999 8 2
      vertex 5.79999 8 0
    endloop
  endfacet
  facet normal 0 -1 0
    outer loop
      vertex 7.2 8 0
      vertex 7.2 8 2
      vertex 5.79999 8 2
    endloop
  endfacet
  facet normal -1 0 0
    outer loop
      vertex 7.2 6 0
      vertex 7.2 8 2
      vertex 7.2 8 0
    endloop
  endfacet
  facet normal -1 0 0
    outer loop
      vertex 7.2 6 0
      vertex 7.2 6 2
      vertex 7.2 8 2
    endloop
  endfacet
  facet normal 0 -1 0
    outer loop
      vertex 14 6 0
      vertex 7.2 6 2
      vertex 7.2 6 0
    endloop
  endfacet
  facet normal 0 -1 0
    outer loop
      vertex 14 6 0
      vertex 14 6 2
      vertex 7.2 6 2
    endloop
  endfacet
  facet normal -0.624695 -0.780869 0
    outer loop
      vertex 21.5 0 0
      vertex 14 6 2
      vertex 14 6 0
    endloop
  endfacet
  facet normal -0.624695 -0.780869 0
    outer loop
      vertex 21.5 0 0
      vertex 21.5 0 2
      vertex 14 6 2
    endloop
  endfacet
  facet normal 0 -1 0
    outer loop
      vertex 25 0 0
      vertex 21.5 0 2
      vertex 21.5 0 0
    endloop
  endfacet
  facet normal 0 -1 0
    outer loop
      vertex 25 0 0
      vertex 25 0 2
      vertex 21.5 0 2
    endloop
  endfacet
  facet normal 1 0 0
    outer loop
      vertex 25 30 0
      vertex 25 0 2
      vertex 25 0 0
    endloop
  endfacet
  facet normal 1 0 -0
    outer loop
      vertex 25 30 0
      vertex 25 30 2
      vertex 25 0 2
    endloop
  endfacet
  facet normal 0 1 0
    outer loop
      vertex -25 30 0
      vertex 25 30 2
      vertex 25 30 0
    endloop
  endfacet
  facet normal 0 1 0
    outer loop
      vertex -25 30 0
      vertex -25 30 2
      vertex 25 30 2
    endloop
  endfacet
  facet normal -1 0 0
    outer loop
      vertex -25 0 0
      vertex -25 30 2
      vertex -25 30 0
    endloop
  endfacet
  facet normal -1 0 0
    outer loop
      vertex -25 0 0
      vertex -25 0 2
      vertex -25 30 2
    endloop
  endfacet
  facet normal 0 -1 0
    outer loop
      vertex -21.5 0 0
      vertex -25 0 2
      vertex -25 0 0
    endloop
  endfacet
  facet normal 0 -1 0
    outer loop
      vertex -21.5 0 0
      vertex -21.5 0 2
      vertex -25 0 2
    endloop
  endfacet
  facet normal 0.624695 -0.780869 0
    outer loop
      vertex -14 6 0
      vertex -21.5 0 2
      vertex -21.5 0 0
    endloop
  endfacet
  facet normal 0.624695 -0.780869 0
    outer loop
      vertex -14 6 0
      vertex -14 6 2
      vertex -21.5 0 2
    endloop
  endfacet
  facet normal 0 -1 0
    outer loop
      vertex -7.2 6 0
      vertex -14 6 2
      vertex -14 6 0
    endloop
  endfacet
  facet normal 0 -1 0
    outer loop
      vertex -7.2 6 0
      vertex -7.2 6 2
      vertex -14 6 2
    endloop
  endfacet
  facet normal 1 0 0
    outer loop
      vertex -7.2 8 0
      vertex -7.2 6 2
      vertex -7.2 6 0
    endloop
  endfacet
  facet normal 1 0 -0
    outer loop
      vertex -7.2 8 0
      vertex -7.2 8 2
      vertex -7.2 6 2
    endloop
  endfacet
  facet normal 0 -1 0
    outer loop
      vertex -5.79999 8 0
      vertex -7.2 8 2
      vertex -7.2 8 0
    endloop
  endfacet
  facet normal 0 -1 0
    outer loop
      vertex -5.79999 8 0
      vertex -5.79999 8 2
      vertex -7.2 8 2
    endloop
  endfacet
  facet normal -1 0 0
    outer loop
      vertex -5.79999 6 0
      vertex -5.79999 8 2
      vertex -5.79999 8 0
    endloop
  endfacet
  facet normal -1 0 0
    outer loop
      vertex -5.79999 6 0
      vertex -5.79999 6 2
      vertex -5.79999 8 2
    endloop
  endfacet
  facet normal 0 -1 0
    outer loop
      vertex 5.79999 6 0
      vertex -5.79999 6 2
      vertex -5.79999 6 0
    endloop
  endfacet
  facet normal 0 -1 0
    outer loop
      vertex 5.79999 6 0
      vertex 5.79999 6 2
      vertex -5.79999 6 2
    endloop
  endfacet
  facet normal 1 0 0
    outer loop
      vertex 5.79999 8 0
      vertex 5.79999 6 2
      vertex 5.79999 6 0
    endloop
  endfacet
  facet normal 1 0 -0
    outer loop
      vertex 5.79999 8 0
      vertex 5.79999 8 2
      vertex 5.79999 6 2
    endloop
  endfacet
endsolid OpenSCAD_Model
